<svg width="31" height="42" viewBox="0 0 31 42" fill="none" xmlns="http://www.w3.org/2000/svg">
<path fill-rule="evenodd" clip-rule="evenodd" d="M18.8194 8.38349C16.6186 5.99623 17.7702 1.78043 20.9433 0.612193C23.6302 -0.378267 26.7777 1.37408 27.4175 4.21848C27.7757 5.76766 27.1104 7.92636 25.9589 8.94221C25.2423 9.60252 23.707 10.1612 22.6834 10.1612C21.4807 10.1612 21.5063 10.6946 22.7602 11.2533C23.2719 11.5072 24.0396 11.9644 24.4747 12.3199C24.8741 12.648 25.0585 12.7995 25.036 12.909C25.0166 13.003 24.8449 13.0661 24.5258 13.1834C24.142 13.3358 23.8349 13.5136 23.8349 13.5898C23.8349 13.6659 24.5002 14.377 25.3191 15.1897C28.3899 18.2119 29.6693 21.8944 29.0552 25.7038C28.8761 26.7705 28.1851 27.0499 28.1851 26.0594C28.1851 25.7292 28.1084 25.2721 28.0316 25.0435C27.7757 24.3578 27.4175 24.8658 27.4175 25.907C27.4175 28.1927 25.575 32.0783 23.6046 33.8815C23.1559 34.3124 22.961 34.4996 22.7837 34.4844C22.6476 34.4727 22.5219 34.3417 22.2996 34.1101C22.1366 33.9313 22.0282 33.8124 21.9996 33.677C21.9427 33.4083 22.1994 33.0744 22.9649 32.0783C24.4491 30.199 25.9844 27.0245 26.4706 24.815C26.701 23.8499 27.0592 22.9356 27.2639 22.7833C27.6478 22.5039 27.6222 22.3261 27.0336 20.8531C26.0356 18.4405 24.7561 16.5865 22.6578 14.5802C21.6342 13.5898 20.8921 12.6755 20.9945 12.5485C21.3783 12.1422 21.583 10.8723 21.276 10.9739C20.9689 11.0755 20.5594 11.7104 19.8941 13.1834C19.3823 14.2501 19.3823 14.5802 19.8429 14.4024C20.0221 14.3263 20.6106 14.5548 21.1224 14.885C21.8133 15.3675 22.0181 15.6469 21.9157 16.0024C21.8133 16.3072 22.1204 16.8405 22.8369 17.6786C24.6282 19.7357 25.3191 21.742 25.1656 24.561C25.1144 25.6023 24.6026 25.6784 24.6026 24.6626C24.6026 23.1896 24.142 23.6467 24.0396 25.2213C23.9117 27.1514 23.1184 28.8784 21.6086 30.453C20.9524 31.1191 20.6786 31.397 20.6556 31.6939C20.6392 31.9064 20.7512 32.1287 20.9433 32.5101C21.8901 34.364 23.0672 35.7608 23.8349 35.9386C26.3683 36.4973 27.1616 39.6973 25.1144 41.1449C22.7346 42.821 19.587 40.1544 20.8153 37.4624C21.2248 36.5735 20.713 35.4561 20.0221 35.6846C19.6894 35.7862 19.4335 35.6846 19.28 35.4053C19.0753 35.0243 18.9217 35.0243 17.5399 35.5576C15.6207 36.2941 11.5519 36.3957 9.78623 35.7608C8.35321 35.2275 7.96937 35.3799 7.96937 36.5481C7.96937 37.6656 7.61111 38.0973 6.6643 38.0973C5.20569 38.0973 4.61713 36.4465 5.79425 35.6592C6.1525 35.4307 6.61312 35.3291 6.94578 35.4307C7.66229 35.6592 7.58552 35.3037 6.6643 34.3132C6.25486 33.8561 5.94779 33.399 6.02456 33.3228C6.10133 33.2466 6.6643 33.3736 7.25286 33.6021C10.2724 34.6942 14.29 34.8465 17.719 34.0085C18.8961 33.7037 19.9197 33.4244 19.9709 33.3736C20.0988 33.2466 19.1264 30.9863 18.9473 30.9863C18.8449 30.9863 18.5123 31.1895 18.1796 31.4688C17.8932 31.6913 17.7462 31.8055 17.7651 31.8495C17.785 31.8959 17.9896 31.8642 18.4099 31.799C19.4847 31.6466 19.4847 32.1799 18.4099 32.6371C17.6934 32.9418 17.5143 32.9418 17.3096 32.6371C17.1049 32.3831 16.4907 32.3323 14.8018 32.4339C12.5755 32.5863 10.426 32.2053 8.76264 31.418C7.91819 31.0117 8.07172 30.58 9.01854 30.6815C9.42797 30.7069 9.76064 30.6307 9.76064 30.5038C9.76064 30.3768 9.01854 29.5133 8.1229 28.599C6.15251 26.6435 5.41041 24.9419 5.41041 22.5039C5.41041 20.5484 5.69189 20.1674 6.07574 21.6404C6.2376 22.2161 6.31415 22.4883 6.35409 22.4831C6.38992 22.4784 6.3963 22.2505 6.4084 21.8182C6.43399 20.5738 7.1505 18.2881 7.50875 18.2881C7.66229 18.2881 7.53434 18.0087 7.20168 17.6532C6.30604 16.7135 5.79425 16.8405 5.15451 18.2119C4.46359 19.6341 3.61913 22.4785 3.61913 23.2912C3.61913 23.6213 3.49119 23.8753 3.33765 23.8753C2.16053 23.8753 6.81783 31.1387 8.73705 32.3069C9.73505 32.891 9.70946 33.2212 8.71146 33.1704C7.66229 33.1196 4.82185 30.7323 3.4656 28.7768C2.00699 26.6689 1.13694 23.2404 1.4952 21.1071C1.80227 19.4055 2.33965 19.4563 2.33965 21.1579C2.33965 22.6309 2.51878 23.3674 2.85145 23.3674C3.10734 23.3674 3.03057 21.0563 2.77468 20.65C2.67232 20.4976 2.69791 20.2944 2.85145 20.1928C2.97939 20.1166 3.10734 19.8119 3.10734 19.5579C3.10734 18.9484 3.84944 16.7135 4.15652 16.3834C4.31005 16.2564 4.48918 16.2564 4.6939 16.4596C5.15451 16.9167 5.38482 16.8405 5.23128 16.2818C5.02656 15.4945 3.26088 14.4786 2.08376 14.4786C0.215718 14.4786 -0.679918 12.5993 0.599562 11.2533C1.75109 10.0089 4.13093 10.8215 4.13093 12.4469C4.13093 13.412 4.36123 13.9707 4.77067 13.9707C4.97538 13.9707 5.9222 13.2088 6.8946 12.2437C9.63269 9.57712 10.3236 9.0438 11.2192 8.99301C12.3708 8.89142 12.4731 9.24697 11.5007 9.93267C10.5027 10.6438 10.4004 10.72 9.32562 11.5834C7.84142 12.7517 8.3788 13.0056 10.0165 11.9136C12.1149 10.5422 13.3176 10.1358 15.9533 9.98347C17.7446 9.85648 18.3076 9.90728 18.8194 10.2374C19.152 10.466 19.4847 10.5676 19.587 10.4914C19.8429 10.212 19.4335 9.0438 18.8194 8.38349ZM18.7426 13.0056C18.9729 12.3453 19.2544 11.6088 19.3567 11.3549C19.4591 11.1009 19.4335 10.9231 19.2544 10.9231C19.0753 10.9231 18.8961 11.1009 18.8194 11.3041C18.6914 11.6088 18.2052 11.685 16.5675 11.685C13.9573 11.685 11.8846 12.0406 10.0933 12.8279C9.3512 13.158 8.55793 13.3866 8.3788 13.3104C7.96937 13.158 6.68989 14.8342 6.68989 15.4945C6.68989 15.7231 7.09932 16.2818 7.61111 16.7135C8.48116 17.4754 9.17208 17.8564 8.53234 17.2214C8.35321 17.0437 8.22526 16.7897 8.22526 16.6119C8.22526 16.2564 10.9122 13.4628 11.2448 13.4628C11.3728 13.4628 11.6799 13.2342 11.9358 12.9548C12.4475 12.3961 12.7546 12.4977 13.0873 13.3104C13.292 13.8437 13.3944 13.8691 15.5183 13.7675C16.9257 13.6913 17.8214 13.7421 18.0005 13.9199C18.2052 14.1231 18.4099 13.8945 18.7426 13.0056ZM23.1696 13.2088C23.9117 13.2088 23.8349 12.7263 23.0416 12.3453C22.0692 11.8628 22.0436 11.8628 22.0436 12.2183C22.0436 12.5993 22.709 13.2088 23.1696 13.2088ZM11.0401 15.0627C11.0401 15.2659 12.5499 14.4786 12.7034 14.1993C12.9849 13.7929 12.2172 13.9707 11.6287 14.4532C11.296 14.7326 11.0401 15.012 11.0401 15.0627ZM17.0025 16.8659C17.5143 15.9516 17.8725 15.0881 17.7958 14.9612C17.5143 14.504 14.2388 14.7834 12.9337 15.3675C12.5243 15.5707 11.6799 15.7992 11.0913 15.9008C10.3236 16.0278 9.863 16.2818 9.50474 16.7643C9.22326 17.1707 8.99295 17.5516 8.99295 17.6278C8.99295 17.7548 10.6307 18.5675 11.9358 19.05C12.3708 19.2024 12.8314 19.177 13.4455 18.923C13.9573 18.7198 14.725 18.5421 15.2112 18.5421C16.0045 18.5421 16.1324 18.4151 17.0025 16.8659ZM19.4847 15.6977C19.4847 15.6215 19.6638 15.4945 19.8685 15.4437C20.2012 15.3929 20.15 15.2913 19.7406 15.0374L19.725 15.0281C19.1008 14.6562 19.0977 14.6543 18.717 17.4754C18.4355 19.4817 18.4611 19.6087 19.0241 20.3706C19.8174 21.5134 19.9709 23.9007 19.28 25.1959C18.7938 26.1102 18.7938 26.1356 19.3311 28.2181C19.6382 29.3609 20.0221 30.3514 20.2012 30.4276C20.3547 30.4784 20.5083 30.3768 20.5083 30.2244C20.5083 30.0466 20.8409 29.4879 21.2504 28.98C22.1972 27.7863 22.9137 26.3388 23.2975 24.7642C23.4767 24.0531 23.7581 23.2404 23.9117 22.9102C24.3211 22.0468 23.0416 19.5833 21.0968 17.5516C20.2012 16.6373 19.4847 15.7992 19.4847 15.6977ZM9.63269 20.4468C8.99295 19.6087 8.48116 18.8468 8.48116 18.7452C8.48116 18.6182 8.3788 18.5421 8.22526 18.5421C8.09731 18.5421 7.96937 18.7706 7.96937 19.05C7.96937 19.6087 7.04814 22.7325 6.71548 23.3674C6.35722 24.0531 7.76465 26.6943 9.45356 28.4721C10.3492 29.4371 10.9889 30.326 10.9634 30.6053C10.9122 30.9863 11.1425 31.1387 12.0637 31.2911C13.8806 31.6466 18.4611 30.9863 18.4611 30.3514C18.4611 30.199 17.847 29.4879 17.1049 28.7514C16.0045 27.6848 15.5951 27.4308 14.8786 27.4308C12.7546 27.4054 10.7842 25.2975 10.7842 22.9864C10.7842 22.1737 10.5539 21.6658 9.63269 20.4468ZM27.6734 23.8753C27.8269 23.8753 27.9293 23.7483 27.9293 23.6213C27.9293 23.469 27.8269 23.3674 27.6734 23.3674C27.5454 23.3674 27.4175 23.469 27.4175 23.6213C27.4175 23.7483 27.5454 23.8753 27.6734 23.8753ZM20.5339 34.7958C20.6618 34.7958 20.7642 34.618 20.7642 34.4148C20.7642 33.8561 20.0477 33.9577 19.715 34.5926C19.4591 35.0497 19.4847 35.1005 19.8685 34.9735C20.0988 34.8719 20.4059 34.7958 20.5339 34.7958Z" fill="#222227"/>
<path d="M9.93976 4.24388C9.8374 4.32007 9.76063 4.67562 9.76063 5.00577C9.76063 5.46291 9.91417 5.58989 10.3748 5.58989C10.7074 5.58989 11.0657 5.41212 11.1425 5.18355C11.424 4.47245 10.4516 3.73595 9.93976 4.24388Z" fill="#222227"/>
<path d="M13.0617 8.12952C11.731 8.12952 11.0913 6.75812 11.9869 5.79305C12.857 4.85339 14.3668 5.41211 14.3668 6.68193C14.3668 7.69779 13.9829 8.12952 13.0617 8.12952Z" fill="#222227"/>
<path d="M8.66029 7.26605C8.30203 7.64699 8.48116 8.61206 8.96736 8.76444C9.76064 9.0184 10.298 8.63745 10.2213 7.90096C10.1701 7.41843 9.99095 7.21525 9.50474 7.16446C9.14649 7.11367 8.76264 7.16446 8.66029 7.26605Z" fill="#222227"/>
<path d="M26.138 13.3612C26.138 13.0564 26.2148 12.7009 26.3171 12.6247C26.3939 12.5231 26.8033 12.4469 27.2127 12.4469C27.8269 12.4469 27.9293 12.5485 27.9293 13.1834C27.9293 14.0723 27.6222 14.3263 26.7521 14.1231C26.3171 13.9961 26.138 13.7929 26.138 13.3612Z" fill="#222227"/>
<path d="M29.6182 13.1326C29.4134 13.6659 30.0532 14.3517 30.5906 14.1485C30.8209 14.0469 31 13.6913 31 13.3358C31 12.8279 30.8721 12.7009 30.3859 12.7009C30.0532 12.7009 29.6949 12.9041 29.6182 13.1326Z" fill="#222227"/>
<path d="M30.7441 16.3326C30.7441 17.5516 29.0808 18.2119 28.134 17.3484C27.5198 16.8151 27.5454 16.1294 28.1851 15.4945C28.4666 15.2151 28.9272 14.9866 29.2087 14.9866C29.7717 14.9866 30.7441 15.8246 30.7441 16.3326Z" fill="#222227"/>
<path d="M9.55592 37.3862C9.09531 37.8433 9.19767 38.5544 9.73505 38.8592C10.7075 39.3671 11.5519 38.529 11.0401 37.564C10.733 37.0306 10.0165 36.929 9.55592 37.3862Z" fill="#222227"/>
<path d="M7.02255 40.3068C6.79224 40.0782 6.68988 39.7226 6.79224 39.4941C7.02255 38.8592 8.07172 39.1131 8.17408 39.8242C8.27644 40.5353 7.55993 40.8401 7.02255 40.3068Z" fill="#222227"/>
</svg>
