<svg width="175" height="72" viewBox="0 0 175 72" fill="none" xmlns="http://www.w3.org/2000/svg">
<path fill-rule="evenodd" clip-rule="evenodd" d="M32.6274 14.0229C28.812 9.8644 30.8085 2.52074 36.3097 0.485751C40.9681 -1.23957 46.425 1.81292 47.5341 6.76767C48.1552 9.46625 47.0017 13.2266 45.0053 14.9961C43.7631 16.1463 41.1012 17.1196 39.3266 17.1196C37.2414 17.1196 37.2858 18.0486 39.4597 19.0218C40.347 19.4642 41.6779 20.2605 42.4321 20.8799C43.1246 21.4513 43.4443 21.7152 43.4053 21.906C43.3717 22.0698 43.074 22.1797 42.5208 22.384C41.8554 22.6494 41.323 22.9591 41.323 23.0918C41.323 23.2245 42.4765 24.4632 43.8962 25.8789C49.22 31.1433 51.4382 37.558 50.3735 44.1938C50.0629 46.0518 48.8651 46.5385 48.8651 44.8131C48.8651 44.238 48.732 43.4417 48.5989 43.0436C48.1552 41.8491 47.5341 42.7339 47.5341 44.5477C47.5341 48.5292 44.3398 55.2978 40.9237 58.4387C40.1458 59.1894 39.8079 59.5155 39.5005 59.489C39.2645 59.4686 39.0465 59.2404 38.6611 58.8369C38.3785 58.5255 38.1907 58.3184 38.141 58.0824C38.0425 57.6145 38.4874 57.0329 39.8146 55.2978C42.3877 52.0241 45.0497 46.4942 45.8926 42.6454C46.2919 40.9643 46.913 39.3717 47.2679 39.1063C47.9334 38.6197 47.889 38.31 46.8686 35.7442C45.1384 31.5415 42.9201 28.312 39.2822 24.8171C37.5076 23.0918 36.221 21.4992 36.3985 21.278C37.0639 20.5702 37.4189 18.3583 36.8865 18.5352C36.3541 18.7122 35.6443 19.8182 34.4908 22.384C33.6035 24.242 33.6035 24.8171 34.402 24.5075C34.7126 24.3748 35.733 24.7729 36.6203 25.348C37.8181 26.1886 38.1731 26.6752 37.9956 27.2945C37.8181 27.8254 38.3505 28.7544 39.5927 30.2143C42.6983 33.7976 43.8962 37.2925 43.63 42.203C43.5412 44.0168 42.6539 44.1495 42.6539 42.38C42.6539 39.8141 41.8554 40.6104 41.6779 43.3532C41.4561 46.7154 40.0808 49.7237 37.4632 52.4665C36.3254 53.6268 35.8508 54.1109 35.811 54.6281C35.7825 54.9983 35.9766 55.3855 36.3097 56.0498C37.9512 59.2793 39.992 61.7124 41.323 62.0221C45.7151 62.9953 47.0905 68.5694 43.5412 71.091C39.4153 74.0108 33.9584 69.3657 36.0879 64.6764C36.7977 63.128 35.9104 61.1815 34.7126 61.5797C34.1358 61.7566 33.6922 61.5797 33.426 61.093C33.0711 60.4295 32.8049 60.4295 30.4092 61.3585C27.0818 62.6414 20.0277 62.8184 16.9665 61.7124C14.4821 60.7834 13.8166 61.0488 13.8166 63.0838C13.8166 65.0303 13.1955 65.7824 11.554 65.7824C9.02519 65.7824 8.00479 62.9068 10.0456 61.5354C10.6667 61.1373 11.4653 60.9603 12.042 61.1373C13.2842 61.5354 13.1511 60.9161 11.554 59.1908C10.8442 58.3945 10.3118 57.5982 10.4449 57.4655C10.578 57.3327 11.554 57.5539 12.5744 57.9521C17.8095 59.8544 24.7748 60.1198 30.7197 58.6599C32.7605 58.129 34.5351 57.6424 34.6239 57.5539C34.8457 57.3327 33.1598 53.3955 32.8493 53.3955C32.6718 53.3955 32.095 53.7494 31.5183 54.236C31.0217 54.6235 30.7668 54.8225 30.7996 54.8991C30.8341 54.9799 31.1888 54.9247 31.9176 54.8111C33.7809 54.5457 33.7809 55.4747 31.9176 56.271C30.6754 56.8019 30.3648 56.8019 30.0099 56.271C29.655 55.8286 28.5902 55.7401 25.6621 55.9171C21.8023 56.1825 18.0757 55.5189 15.1919 54.1475C13.7279 53.4397 13.9941 52.6877 15.6356 52.8646C16.3454 52.9089 16.9222 52.7761 16.9222 52.5549C16.9222 52.3337 15.6356 50.8296 14.0828 49.237C10.6667 45.8306 9.38011 42.8666 9.38011 38.6197C9.38011 35.2133 9.86813 34.5497 10.5336 37.1156C10.8142 38.1183 10.9469 38.5925 11.0162 38.5834C11.0783 38.5753 11.0894 38.1783 11.1103 37.4252C11.1547 35.2575 12.3969 31.276 13.018 31.276C13.2842 31.276 13.0624 30.7894 12.4857 30.1701C10.9329 28.5332 10.0456 28.7544 8.93646 31.1433C7.7386 33.6207 6.27455 38.5754 6.27455 39.9911C6.27455 40.5662 6.05273 41.0086 5.78654 41.0086C3.74574 41.0086 11.8202 53.6609 15.1476 55.6959C16.8778 56.7134 16.8334 57.2885 15.1032 57.2C13.2842 57.1115 8.35971 52.9531 6.00836 49.5467C3.47955 45.8749 1.97114 39.9026 2.59225 36.1865C3.12463 33.2225 4.0563 33.311 4.0563 36.275C4.0563 38.8409 4.36685 40.1238 4.9436 40.1238C5.38725 40.1238 5.25416 36.0981 4.81051 35.3902C4.63304 35.1248 4.67741 34.7709 4.9436 34.5939C5.16543 34.4612 5.38725 33.9304 5.38725 33.488C5.38725 32.4262 6.67384 28.5332 7.20622 27.9581C7.47241 27.7369 7.78297 27.7369 8.13789 28.0908C8.93646 28.8871 9.33575 28.7544 9.06955 27.7812C8.71463 26.4098 5.65344 24.6402 3.61265 24.6402C0.373995 24.6402 -1.17878 21.3665 1.03947 19.0218C3.0359 16.8541 7.16185 18.2698 7.16185 21.1011C7.16185 22.7822 7.56114 23.7554 8.27098 23.7554C8.6259 23.7554 10.2674 22.4282 11.9533 20.7472C16.7004 16.1021 17.8982 15.1731 19.451 15.0846C21.4474 14.9076 21.6249 15.527 19.939 16.7214C18.2088 17.9601 18.0313 18.0928 16.168 19.597C13.5948 21.6319 14.5265 22.0743 17.3658 20.1721C21.0038 17.7832 23.0889 17.0753 27.6585 16.8099C30.7641 16.5887 31.7401 16.6772 32.6274 17.2523C33.2042 17.6504 33.7809 17.8274 33.9584 17.6947C34.402 17.2081 33.6922 15.1731 32.6274 14.0229ZM32.4943 22.0743C32.8936 20.9241 33.3816 19.6412 33.5591 19.1988C33.7366 18.7564 33.6922 18.4467 33.3816 18.4467C33.0711 18.4467 32.7605 18.7564 32.6274 19.1103C32.4056 19.6412 31.5627 19.7739 28.7233 19.7739C24.1981 19.7739 20.6045 20.3933 17.4989 21.7647C16.2123 22.3398 14.837 22.7379 14.5265 22.6052C13.8166 22.3398 11.5984 25.2595 11.5984 26.4097C11.5984 26.8079 12.3082 27.7812 13.1955 28.5332C14.7039 29.8604 15.9018 30.524 14.7927 29.418C14.4821 29.1083 14.2603 28.6659 14.2603 28.3563C14.2603 27.7369 18.9186 22.8706 19.4954 22.8706C19.7172 22.8706 20.2496 22.4725 20.6932 21.9859C21.5805 21.0126 22.1129 21.1896 22.6896 22.6052C23.0446 23.5342 23.222 23.5785 26.9043 23.4015C29.3444 23.2688 30.8972 23.3573 31.2077 23.6669C31.5627 24.0208 31.9176 23.6227 32.4943 22.0743ZM40.1695 22.4282C41.4561 22.4282 41.323 21.5877 39.9477 20.9241C38.2618 20.0836 38.2174 20.0836 38.2174 20.7029C38.2174 21.3665 39.3709 22.4282 40.1695 22.4282ZM19.1404 25.6577C19.1404 26.0116 21.758 24.6402 22.0242 24.1536C22.5122 23.4457 21.1812 23.7554 20.1608 24.596C19.5841 25.0826 19.1404 25.5692 19.1404 25.6577ZM29.4775 28.7987C30.3648 27.206 30.9859 25.7019 30.8528 25.4807C30.3648 24.6844 24.6861 25.1711 22.4235 26.1886C21.7136 26.5425 20.2496 26.9406 19.2292 27.1176C17.8982 27.3388 17.0996 27.7812 16.4785 28.6217C15.9905 29.3295 15.5912 29.9931 15.5912 30.1258C15.5912 30.347 18.4306 31.7627 20.6932 32.6032C21.4474 32.8686 22.246 32.8244 23.3108 32.382C24.1981 32.0281 25.529 31.7184 26.3719 31.7184C27.7473 31.7184 27.9691 31.4972 29.4775 28.7987ZM33.7809 26.7637C33.7809 26.6309 34.0915 26.4097 34.4464 26.3213C35.0231 26.2328 34.9344 26.0558 34.2246 25.6134L34.1975 25.5973C33.1154 24.9495 33.11 24.9462 32.45 29.8604C31.9619 33.3553 32.0063 33.5765 32.9823 34.9036C34.3577 36.8944 34.6239 41.0528 33.426 43.309C32.5831 44.9016 32.5831 44.9458 33.5147 48.5734C34.0471 50.5642 34.7126 52.2895 35.0231 52.4222C35.2893 52.5107 35.5555 52.3337 35.5555 52.0683C35.5555 51.7586 36.1323 50.7854 36.8421 49.9006C38.4836 47.8214 39.7258 45.2998 40.3913 42.5569C40.7019 41.3183 41.1899 39.9026 41.4561 39.3275C42.1659 37.8234 39.9477 33.5322 36.5759 29.9931C35.0231 28.4005 33.7809 26.9406 33.7809 26.7637ZM16.7004 35.0363C15.5912 33.5765 14.7039 32.2493 14.7039 32.0723C14.7039 31.8511 14.5265 31.7184 14.2603 31.7184C14.0384 31.7184 13.8166 32.1166 13.8166 32.6032C13.8166 33.5765 12.2195 39.0178 11.6427 40.1238C11.0216 41.3183 13.4617 45.9191 16.3898 49.0158C17.9426 50.6969 19.0517 52.2453 19.0073 52.7319C18.9186 53.3955 19.3179 53.6609 20.915 53.9263C24.065 54.5457 32.0063 53.3955 32.0063 52.2895C32.0063 52.0241 30.9416 50.7854 29.655 49.5025C27.7473 47.6444 27.0374 47.202 25.7952 47.202C22.1129 47.1578 18.6968 43.486 18.6968 39.4602C18.6968 38.0446 18.2975 37.1598 16.7004 35.0363ZM47.9778 41.0086C48.2439 41.0086 48.4214 40.7874 48.4214 40.5662C48.4214 40.3008 48.2439 40.1238 47.9778 40.1238C47.7559 40.1238 47.5341 40.3008 47.5341 40.5662C47.5341 40.7874 47.7559 41.0086 47.9778 41.0086ZM35.5999 60.0313C35.8217 60.0313 35.9992 59.7216 35.9992 59.3677C35.9992 58.3945 34.757 58.5714 34.1802 59.6774C33.7366 60.4737 33.7809 60.5622 34.4464 60.341C34.8457 60.164 35.3781 60.0313 35.5999 60.0313Z" fill="#222227"/>
<path d="M63.8881 28.8896H76.7864V25.1345H67.6539V21.3924H73.8341V17.6373H67.6539V13.8822H76.7864V10.1271H63.8881V28.8896Z" fill="#222227"/>
<path d="M90.4458 28.8896H94.474V10.1271H90.7082V22.4915L83.4521 10.1271H79.4238V28.8896H83.1896V16.5383L90.4458 28.8896Z" fill="#222227"/>
<path d="M97.9774 28.8896H101.743V10.1271H97.9774V28.8896Z" fill="#222227"/>
<path fill-rule="evenodd" clip-rule="evenodd" d="M116.321 28.8896H120.087V17.6373C120.087 16.5993 119.89 15.6267 119.497 14.7196C119.103 13.8037 118.565 13.0056 117.883 12.3252C117.2 11.6448 116.4 11.1084 115.481 10.7158C114.572 10.3233 113.596 10.1271 112.555 10.1271C111.514 10.1271 110.535 10.3233 109.616 10.7158C108.706 11.1084 107.91 11.6448 107.228 12.3252C106.554 13.0056 106.021 13.8037 105.627 14.7196C105.234 15.6267 105.037 16.5993 105.037 17.6373V28.8896H108.789V25.1345H116.321V28.8896ZM116.321 17.6373V21.3924H108.789V17.6373C108.789 17.1227 108.886 16.6386 109.078 16.185C109.279 15.7227 109.55 15.3214 109.892 14.9813C110.233 14.6411 110.631 14.375 111.086 14.1831C111.549 13.9825 112.039 13.8822 112.555 13.8822C113.071 13.8822 113.557 13.9825 114.012 14.1831C114.475 14.375 114.878 14.6411 115.219 14.9813C115.56 15.3214 115.827 15.7227 116.019 16.185C116.221 16.6386 116.321 17.1227 116.321 17.6373Z" fill="#222227"/>
<path d="M135.439 28.6934C136.524 28.2921 137.503 27.7164 138.378 26.9663L136.384 23.6952C135.833 24.2884 135.181 24.7463 134.429 25.0691C133.676 25.3831 132.889 25.5401 132.067 25.5401C131.236 25.5401 130.457 25.3831 129.731 25.0691C129.005 24.755 128.371 24.3276 127.829 23.7868C127.286 23.246 126.858 22.618 126.543 21.9027C126.228 21.1787 126.07 20.4068 126.07 19.5868C126.07 18.7669 126.228 17.9949 126.543 17.271C126.858 16.5383 127.286 15.9059 127.829 15.3738C128.371 14.833 129.005 14.4056 129.731 14.0915C130.457 13.7775 131.236 13.6205 132.067 13.6205C132.889 13.6205 133.676 13.7819 134.429 14.1046C135.181 14.4186 135.833 14.8722 136.384 15.4654L138.378 12.1943C137.503 11.4355 136.524 10.8598 135.439 10.4672C134.354 10.066 133.23 9.86538 132.067 9.86538C131.175 9.86538 130.313 9.98314 129.482 10.2187C128.66 10.4454 127.885 10.7725 127.159 11.2C126.442 11.6186 125.786 12.1246 125.191 12.7177C124.596 13.3109 124.085 13.9694 123.656 14.6934C123.236 15.4087 122.908 16.1806 122.672 17.0093C122.444 17.8379 122.331 18.6971 122.331 19.5868C122.331 20.4766 122.444 21.3357 122.672 22.1644C122.908 22.9843 123.236 23.7563 123.656 24.4803C124.085 25.1955 124.596 25.8497 125.191 26.4429C125.786 27.036 126.442 27.5463 127.159 27.9737C127.885 28.3924 128.66 28.7152 129.482 28.942C130.313 29.1775 131.175 29.2952 132.067 29.2952C133.23 29.2952 134.354 29.0946 135.439 28.6934Z" fill="#222227"/>
<path fill-rule="evenodd" clip-rule="evenodd" d="M74.9625 61.9661H78.7283V50.7138C78.7283 49.6758 78.5315 48.7032 78.1379 47.7961C77.7442 46.8802 77.2063 46.0821 76.524 45.4017C75.8416 44.7213 75.0412 44.1849 74.1227 43.7924C73.213 43.3998 72.2376 43.2036 71.1967 43.2036C70.1557 43.2036 69.176 43.3998 68.2575 43.7924C67.3477 44.1849 66.5517 44.7213 65.8694 45.4017C65.1958 46.0821 64.6622 46.8802 64.2686 47.7961C63.8749 48.7032 63.6781 49.6758 63.6781 50.7138V61.9661H67.4308V58.211H74.9625V61.9661ZM74.9625 50.7138V54.469H67.4308V50.7138C67.4308 50.1992 67.5271 49.7151 67.7195 49.2615C67.9207 48.7992 68.1919 48.398 68.533 48.0578C68.8742 47.7176 69.2722 47.4515 69.7271 47.2596C70.1907 47.059 70.6806 46.9587 71.1967 46.9587C71.7128 46.9587 72.1983 47.059 72.6531 47.2596C73.1168 47.4515 73.5192 47.7176 73.8603 48.0578C74.2015 48.398 74.4683 48.7992 74.6607 49.2615C74.8619 49.7151 74.9625 50.1992 74.9625 50.7138Z" fill="#222227"/>
<path d="M91.1412 53.3699L93.7655 50.74C93.4506 50.2079 93.0744 49.7369 92.637 49.3269C92.2084 48.917 91.736 48.5724 91.2199 48.2933C90.7126 48.0054 90.1746 47.7874 89.606 47.6391C89.0461 47.4908 88.4732 47.4166 87.8871 47.4166C86.8986 47.4166 85.967 47.6173 85.0922 48.0185C84.2262 48.4198 83.4652 48.9693 82.8091 49.6671C82.1618 50.3562 81.65 51.1674 81.2739 52.1007C80.8978 53.0341 80.7097 54.0372 80.7097 55.1101C80.7097 56.0957 80.8978 57.0204 81.2739 57.8839C81.65 58.7474 82.1618 59.502 82.8091 60.1474C83.4652 60.7929 84.2262 61.3032 85.0922 61.6783C85.967 62.0446 86.8986 62.2278 87.8871 62.2278C88.4732 62.2278 89.0418 62.158 89.5929 62.0185C90.1527 61.8876 90.6819 61.6914 91.1806 61.4297C91.6879 61.168 92.1559 60.8496 92.5845 60.4745C93.0219 60.0995 93.4068 59.6764 93.7392 59.2054L91.1149 56.5755C90.975 56.8895 90.7913 57.1774 90.5638 57.439C90.3452 57.692 90.0915 57.9101 89.8028 58.0932C89.5229 58.2677 89.2211 58.4029 88.8974 58.4989C88.5738 58.5948 88.237 58.6428 87.8871 58.6428C87.3972 58.6428 86.9336 58.5512 86.4962 58.368C86.0676 58.1848 85.6914 57.9319 85.3678 57.6091C85.0529 57.2864 84.8036 56.9113 84.6199 56.4839C84.4362 56.0565 84.3443 55.5986 84.3443 55.1101C84.3443 54.5082 84.4362 53.9587 84.6199 53.4615C84.8036 52.9643 85.0529 52.5369 85.3678 52.1792C85.6914 51.8129 86.0676 51.5294 86.4962 51.3288C86.9336 51.1282 87.3972 51.0279 87.8871 51.0279C88.237 51.0279 88.5781 51.0802 88.9105 51.1849C89.243 51.2895 89.5491 51.4422 89.829 51.6428C90.1177 51.8434 90.3758 52.092 90.6032 52.3886C90.8306 52.6764 91.01 53.0035 91.1412 53.3699Z" fill="#222227"/>
<path fill-rule="evenodd" clip-rule="evenodd" d="M108.055 61.9661H108.921V47.9793H108.055L106.664 49.6409C106.331 49.3269 105.973 49.0347 105.588 48.7643C105.212 48.4939 104.814 48.2584 104.394 48.0578C103.974 47.8571 103.541 47.7001 103.095 47.5867C102.649 47.4733 102.198 47.4166 101.743 47.4166C100.755 47.4166 99.8232 47.5998 98.9484 47.9662C98.0824 48.3238 97.3214 48.8297 96.6653 49.4839C96.018 50.1381 95.5062 50.9232 95.1301 51.8391C94.7539 52.7462 94.5659 53.745 94.5659 54.8353C94.5659 56.0042 94.7539 57.0465 95.1301 57.9624C95.5062 58.8783 96.018 59.6546 96.6653 60.2914C97.3214 60.9194 98.0824 61.3991 98.9484 61.7306C99.8232 62.0621 100.755 62.2278 101.743 62.2278C102.198 62.2278 102.644 62.1711 103.082 62.0577C103.528 61.9443 103.961 61.7917 104.381 61.5998C104.801 61.3991 105.199 61.168 105.575 60.9063C105.96 60.6359 106.323 60.3481 106.664 60.0428L108.055 61.9661ZM105.024 53.4222C105.216 53.8758 105.312 54.3468 105.312 54.8353C105.312 55.3238 105.216 55.7992 105.024 56.2615C104.84 56.7151 104.586 57.1207 104.263 57.4783C103.939 57.8272 103.558 58.1107 103.121 58.3288C102.692 58.5381 102.233 58.6428 101.743 58.6428C101.253 58.6428 100.79 58.5599 100.352 58.3942C99.9238 58.2284 99.5476 57.9842 99.224 57.6615C98.9091 57.3387 98.6597 56.9418 98.476 56.4708C98.2923 55.9911 98.2005 55.4459 98.2005 54.8353C98.2005 54.2247 98.2923 53.6839 98.476 53.2129C98.6597 52.7331 98.9091 52.3319 99.224 52.0092C99.5476 51.6864 99.9238 51.4422 100.352 51.2764C100.79 51.1107 101.253 51.0279 101.743 51.0279C102.233 51.0279 102.692 51.1369 103.121 51.355C103.558 51.5643 103.939 51.8478 104.263 52.2054C104.586 52.5543 104.84 52.9599 105.024 53.4222Z" fill="#222227"/>
<path fill-rule="evenodd" clip-rule="evenodd" d="M124.378 61.9661H125.244V42.3793H121.635V48.9213C121.443 48.6422 121.207 48.4067 120.927 48.2148C120.647 48.0229 120.345 47.8702 120.021 47.7568C119.706 47.6347 119.378 47.5475 119.037 47.4952C118.705 47.4428 118.381 47.4166 118.066 47.4166C117.078 47.4166 116.146 47.6042 115.271 47.9793C114.405 48.3543 113.644 48.8733 112.988 49.5363C112.341 50.1992 111.829 50.9842 111.453 51.8914C111.077 52.7986 110.889 53.7799 110.889 54.8353C110.889 55.8995 111.077 56.8851 111.453 57.7923C111.829 58.6907 112.341 59.4714 112.988 60.1344C113.644 60.7886 114.405 61.3032 115.271 61.6783C116.146 62.0446 117.078 62.2278 118.066 62.2278C118.521 62.2278 118.967 62.1711 119.405 62.0577C119.851 61.9443 120.284 61.7917 120.704 61.5998C121.124 61.3991 121.522 61.168 121.898 60.9063C122.283 60.6359 122.646 60.3481 122.987 60.0428L124.378 61.9661ZM121.347 53.4222C121.539 53.8758 121.635 54.3468 121.635 54.8353C121.635 55.3238 121.539 55.7992 121.347 56.2615C121.163 56.7151 120.909 57.1207 120.586 57.4783C120.262 57.8272 119.881 58.1107 119.444 58.3288C119.015 58.5381 118.556 58.6428 118.066 58.6428C117.576 58.6428 117.113 58.5425 116.675 58.3418C116.247 58.1412 115.871 57.8665 115.547 57.5175C115.232 57.1686 114.983 56.763 114.799 56.3007C114.615 55.8384 114.524 55.35 114.524 54.8353C114.524 54.2422 114.615 53.7101 114.799 53.2391C114.983 52.768 115.232 52.3711 115.547 52.0484C115.871 51.7169 116.247 51.464 116.675 51.2895C117.113 51.1151 117.576 51.0279 118.066 51.0279C118.556 51.0279 119.015 51.1369 119.444 51.355C119.881 51.5643 120.262 51.8478 120.586 52.2054C120.909 52.5543 121.163 52.9599 121.347 53.4222Z" fill="#222227"/>
<path fill-rule="evenodd" clip-rule="evenodd" d="M133.996 58.6297C133.856 58.6122 133.716 58.5817 133.576 58.5381L140.294 50.4652C139.962 49.9942 139.577 49.5712 139.139 49.1961C138.702 48.8123 138.229 48.4895 137.722 48.2279C137.224 47.9662 136.694 47.7656 136.134 47.626C135.575 47.4864 135.002 47.4166 134.416 47.4166C133.427 47.4166 132.495 47.5955 131.621 47.9531C130.755 48.3107 129.994 48.8123 129.338 49.4578C128.69 50.1032 128.179 50.8839 127.802 51.7998C127.426 52.7157 127.238 53.7275 127.238 54.8353C127.238 55.9169 127.426 56.9113 127.802 57.8185C128.179 58.7169 128.69 59.4932 129.338 60.1474C129.994 60.8016 130.755 61.3119 131.621 61.6783C132.495 62.0446 133.427 62.2278 134.416 62.2278C135.002 62.2278 135.57 62.158 136.121 62.0185C136.681 61.8876 137.21 61.6914 137.709 61.4297C138.216 61.168 138.684 60.8496 139.113 60.4745C139.55 60.0995 139.935 59.6764 140.268 59.2054L137.643 56.5755C137.503 56.8895 137.32 57.1774 137.092 57.439C136.874 57.692 136.62 57.9101 136.331 58.0932C136.051 58.2677 135.75 58.4029 135.426 58.4989C135.102 58.5948 134.765 58.6428 134.416 58.6428C134.276 58.6428 134.136 58.6384 133.996 58.6297ZM134.914 51.054C135.08 51.0715 135.247 51.1107 135.413 51.1718L131.24 56.6933C131.17 56.5711 131.113 56.4316 131.07 56.2746C131.026 56.1176 130.986 55.9562 130.951 55.7904C130.925 55.616 130.903 55.4459 130.886 55.2802C130.877 55.1144 130.873 54.9662 130.873 54.8353C130.873 54.2509 130.965 53.7275 131.148 53.2652C131.332 52.7942 131.581 52.393 131.896 52.0615C132.22 51.73 132.596 51.4771 133.025 51.3026C133.462 51.1194 133.926 51.0279 134.416 51.0279C134.59 51.0279 134.757 51.0366 134.914 51.054Z" fill="#222227"/>
<path d="M156.407 61.9661H159.976V53.069C159.976 52.3275 159.836 51.6297 159.556 50.9755C159.276 50.3213 158.891 49.7543 158.401 49.2746C157.92 48.7861 157.352 48.4023 156.696 48.1232C156.048 47.8441 155.353 47.7045 154.609 47.7045C154.286 47.7045 153.958 47.735 153.625 47.7961C153.293 47.8484 152.969 47.94 152.654 48.0709C152.348 48.2017 152.055 48.3718 151.775 48.5811C151.495 48.7905 151.246 49.0434 151.027 49.34C150.555 48.7381 150.004 48.3151 149.374 48.0709C148.753 47.8266 148.114 47.7045 147.458 47.7045C146.811 47.7045 146.185 47.8223 145.582 48.0578C144.987 48.2846 144.44 48.6073 143.942 49.026L142.971 47.9531H142.105V61.9661H145.687V53.069C145.687 52.8247 145.731 52.5936 145.818 52.3755C145.914 52.1574 146.041 51.9655 146.199 51.7998C146.365 51.6341 146.553 51.5076 146.763 51.4204C146.981 51.3244 147.213 51.2764 147.458 51.2764C147.703 51.2764 147.935 51.3244 148.154 51.4204C148.372 51.5076 148.565 51.6341 148.731 51.7998C148.897 51.9655 149.024 52.1574 149.111 52.3755C149.208 52.5936 149.256 52.8247 149.256 53.069V61.9661H152.838V53.069C152.838 52.8247 152.882 52.5936 152.969 52.3755C153.065 52.1574 153.192 51.9655 153.35 51.7998C153.516 51.6341 153.704 51.5076 153.914 51.4204C154.133 51.3244 154.364 51.2764 154.609 51.2764C154.854 51.2764 155.086 51.3244 155.305 51.4204C155.523 51.5076 155.716 51.6341 155.882 51.7998C156.048 51.9655 156.175 52.1574 156.263 52.3755C156.359 52.5936 156.407 52.8247 156.407 53.069V61.9661Z" fill="#222227"/>
<path d="M165.986 63.7063V67.3044L167.823 67.3306C168.811 67.3306 169.738 67.1431 170.604 66.768C171.47 66.3929 172.227 65.8826 172.874 65.2371C173.53 64.5917 174.047 63.8371 174.423 62.9736C174.799 62.1101 174.991 61.1854 175 60.1998V47.9531H171.392V55.6989C171.392 56.0739 171.322 56.4403 171.182 56.7979C171.042 57.1468 170.849 57.4608 170.604 57.74C170.359 58.0191 170.071 58.2459 169.738 58.4203C169.415 58.5861 169.069 58.6689 168.702 58.6689C168.326 58.6689 167.971 58.6079 167.639 58.4858C167.315 58.3636 167.031 58.1805 166.786 57.9362C166.541 57.6833 166.344 57.3736 166.196 57.0073C166.056 56.6322 165.986 56.1961 165.986 55.6989V47.9531H162.417V55.6989C162.417 56.702 162.578 57.6091 162.902 58.4203C163.234 59.2228 163.685 59.9076 164.254 60.4745C164.831 61.0328 165.5 61.4646 166.261 61.7699C167.022 62.0752 167.836 62.2278 168.702 62.2278C169.113 62.2278 169.52 62.1449 169.922 61.9792C170.333 61.8135 170.736 61.6477 171.129 61.482C170.998 61.8048 170.827 62.1013 170.617 62.3717C170.408 62.6509 170.163 62.8907 169.883 63.0914C169.611 63.292 169.314 63.449 168.99 63.5624C168.667 63.6758 168.33 63.7325 167.98 63.7325L165.986 63.7063Z" fill="#222227"/>
<path d="M17.2327 6.81192C17.0553 6.94463 16.9222 7.56398 16.9222 8.13908C16.9222 8.93538 17.1884 9.15658 17.9869 9.15658C18.5637 9.15658 19.1848 8.84691 19.3179 8.44876C19.8059 7.21007 18.12 5.92714 17.2327 6.81192Z" fill="#222227"/>
<path d="M22.6453 13.5805C20.3383 13.5805 19.2292 11.1916 20.7819 9.51048C22.2904 7.87364 24.9079 8.84689 24.9079 11.0588C24.9079 12.8284 24.2424 13.5805 22.6453 13.5805Z" fill="#222227"/>
<path d="M15.0145 12.0763C14.3934 12.7399 14.7039 14.421 15.5469 14.6864C16.9222 15.1288 17.8538 14.4652 17.7208 13.1823C17.632 12.3418 17.3215 11.9879 16.4785 11.8994C15.8574 11.8109 15.1919 11.8994 15.0145 12.0763Z" fill="#222227"/>
<path d="M45.3159 22.6937C45.3159 22.1628 45.4489 21.5435 45.6264 21.4107C45.7595 21.2338 46.4693 21.1011 47.1792 21.1011C48.2439 21.1011 48.4214 21.278 48.4214 22.384C48.4214 23.9324 47.889 24.3748 46.3806 24.0208C45.6264 23.7996 45.3159 23.4457 45.3159 22.6937Z" fill="#222227"/>
<path d="M51.3495 22.2955C50.9946 23.2246 52.1037 24.419 53.0354 24.0651C53.4347 23.8881 53.7452 23.2688 53.7452 22.6494C53.7452 21.7647 53.5234 21.5435 52.6804 21.5435C52.1037 21.5435 51.4826 21.8974 51.3495 22.2955Z" fill="#222227"/>
<path d="M53.3016 27.8696C53.3016 29.9931 50.4178 31.1433 48.7763 29.6392C47.7116 28.7102 47.7559 27.5157 48.865 26.4097C49.3531 25.9231 50.1516 25.525 50.6397 25.525C51.6157 25.525 53.3016 26.9849 53.3016 27.8696Z" fill="#222227"/>
<path d="M16.5673 64.5437C15.7687 65.34 15.9462 66.5787 16.8778 67.1095C18.5637 67.9943 20.0277 66.5344 19.1404 64.8533C18.6081 63.9243 17.3658 63.7474 16.5673 64.5437Z" fill="#222227"/>
<path d="M12.1751 69.6311C11.7758 69.233 11.5984 68.6136 11.7758 68.2155C12.1751 67.1095 13.9941 67.5519 14.1715 68.7906C14.349 70.0293 13.1068 70.5602 12.1751 69.6311Z" fill="#222227"/>
</svg>
